<?xml version="1.0" encoding="UTF-8"?>
<svg id="Livello_1" xmlns="http://www.w3.org/2000/svg" version="1.1" viewBox="0 0 71.9 81.7">
  <!-- Generator: Adobe Illustrator 30.6.0, SVG Export Plug-In . SVG Version: 2.1.4 Build 109)  -->
  <defs>
    <style>
      .st0 {
        fill: none;
        stroke: #005f27;
        stroke-miterlimit: 10;
        stroke-width: .3px;
      }
    </style>
  </defs>
  <polyline class="st0" points="0 81.6 5.8 77.2 11.3 72.7 15.7 68 19.8 64.9 27.2 68.5 31.9 68.6 32.3 71.4 34.2 73.6 36.8 74.7 39.6 74.2 41.9 72.4 42.9 69.7 42.4 66.9 40.6 64.7 37.9 63.7 35.1 64.1 32.9 65.9 31.9 68.6 25.3 67.5 20.3 65 19.4 60.1 18.5 55.3 20.6 51.1 22.6 46.9 20.4 40.6 18.3 34.4 20 28.4 21.7 22.4 20.1 16 18.5 9.5 23.1 8.1 32.4 5.2 32.9 8 34.7 10.2 37.4 11.3 40.2 10.8 42.4 9 43.4 6.3 43 3.5 41.2 1.3 38.5 .2 35.7 .7 33.5 2.5 32.4 5.2 27.2 8.5 22.9 14.2 18.5 19.9 20.4 24.6 22.2 29.3 20.7 34.9 19.1 40.5 25.8 40.4 32.5 40.2 39.2 40 45.9 39.8 52.6 39.6 63 41.8 60.2 41.9 57.5 43.1 55.3 45 53.7 47.3 52.7 50 52.4 52.9 52.6 55.7 53.5 58.5 55.1 60.9 57.2 62.9 59.8 64.1 62.6 64.4 65.4 63.8 67.9 62.2 69.8 60.1 71.1 57.5 71.8 54.7 71.8 51.8 71.2 49 70 46.4 68.2 44.2 65.8 42.6 63 41.8"/>
</svg>