<?xml version="1.0" encoding="UTF-8"?>
<svg id="Livello_1" xmlns="http://www.w3.org/2000/svg" version="1.1" viewBox="0 0 79.4 69.5">
  <!-- Generator: Adobe Illustrator 30.6.0, SVG Export Plug-In . SVG Version: 2.1.4 Build 109)  -->
  <defs>
    <style>
      .st0 {
        fill: none;
        fill-rule: evenodd;
        stroke: #e30613;
        stroke-miterlimit: 10;
        stroke-width: .3px;
      }
    </style>
  </defs>
  <polyline class="st0" points="7.2 69.3 2.2 66.8 .4 57.1 4.5 48.7 .1 36.3 3.5 24.3 .4 11.3 4.9 10"/>
  <polyline class="st0" points="12.4 6.1 12.3 6.8 12.3 7.6 12.3 8.4 12.4 9.1 12.6 9.8 12.9 10.5 13.2 11.1 13.6 11.7 14 12.3 14.5 12.9 15 13.3 15.6 13.8 16.2 14.2 16.9 14.5 17.5 14.7 18.3 14.9 19 15 19.8 15 20.5 15 21.2 14.9 22 14.7 22.6 14.5 23.3 14.2 23.9 13.8 24.5 13.3 25 12.9 25.5 12.3 25.9 11.8 26.3 11.1 26.6 10.5 26.9 9.8 27.1 9.1 27.2 8.4 27.2 7.6 27.2 6.8 27.1 6.1 26.9 5.4 26.6 4.7 26.3 4.1 25.9 3.4 25.5 2.9 25 2.3 24.5 1.9 23.9 1.4 23.3 1 22.6 .7 22 .5 21.2 .3 20.5 .2 19.8 .1 19 .2 18.3 .3 17.5 .5 16.9 .7 16.2 1 15.6 1.4 15 1.9 14.5 2.3 14 2.9 13.6 3.4 13.2 4.1 12.9 4.7 12.6 5.4 12.4 6.1"/>
  <polyline class="st0" points="9.1 10.4 .4 21.7 4.1 31.1 1 42.4 34.5 41.5"/>
  <polyline class="st0" points="37 44.9 36.2 45.7 35.4 46.6 34.8 47.6 34.2 48.7 33.7 49.8 33.3 51 33 52.3 32.8 53.6 32.7 54.9 32.8 56.3 33 57.6 33.3 58.8 33.7 60 34.2 61.1 34.8 62.2 35.4 63.2 36.2 64.1 37 65 37.9 65.7 38.8 66.3 39.8 66.8 40.8 67.2 41.8 67.5 42.8 67.7 43.9 67.7 45 67.7 46 67.5 47.1 67.2 48.1 66.8 49 66.3 49.9 65.7 50.8 64.9 51.6 64.1 52.4 63.2 53.1 62.2 53.7 61.2 54.2 60 54.6 58.8 54.9 57.6 55 56.3 55.1 54.9 55 53.6 54.9 52.3 54.6 51 54.2 49.8 53.7 48.7 53.1 47.6 52.4 46.6 51.6 45.7 50.8 44.9 49.9 44.1 49 43.5 48.1 43 47.1 42.6 46 42.4 45 42.2 43.9 42.1 42.8 42.2 41.8 42.4 40.8 42.6 39.8 43 38.9 43.5 37.9 44.2 37 44.9"/>
  <polyline class="st0" points="34.7 41.7 45.7 32.8 50.1 28 54.2 24.9 61.6 28.5"/>
  <polyline class="st0" points="64.5 27.4 64.3 28.1 64.3 28.9 64.3 29.6 64.5 30.4 64.6 31.1 64.9 31.8 65.2 32.4 65.6 33 66 33.6 66.5 34.1 67 34.6 67.6 35 68.2 35.4 68.9 35.7 69.6 36 70.3 36.2 71 36.3 71.8 36.3 72.5 36.3 73.3 36.2 74 36 74.7 35.7 75.3 35.4 75.9 35 76.5 34.6 77 34.1 77.5 33.6 77.9 33 78.3 32.4 78.6 31.8 78.9 31.1 79.1 30.4 79.2 29.6 79.2 28.9 79.2 28.1 79.1 27.4 78.9 26.7 78.6 26 78.3 25.3 77.9 24.7 77.5 24.1 77 23.6 76.5 23.1 75.9 22.7 75.3 22.3 74.7 22 74 21.8 73.3 21.6 72.5 21.4 71.8 21.4 71 21.4 70.3 21.6 69.6 21.8 68.9 22 68.2 22.3 67.6 22.7 67 23.1 66.5 23.6 66 24.1 65.6 24.7 65.2 25.3 64.9 26 64.6 26.7 64.5 27.4"/>
</svg>