<?xml version="1.0" encoding="UTF-8"?>
<svg id="Livello_1" xmlns="http://www.w3.org/2000/svg" version="1.1" viewBox="0 0 82.6 74.2">
  <!-- Generator: Adobe Illustrator 30.6.0, SVG Export Plug-In . SVG Version: 2.1.4 Build 109)  -->
  <defs>
    <style>
      .st0 {
        fill: none;
        stroke: #e30613;
        stroke-miterlimit: 10;
        stroke-width: .3px;
      }
    </style>
  </defs>
  <polyline class="st0" points="7.3 72.6 2.3 70.1 1.4 65.3 .5 60.4 2.5 56.2 4.6 52 3.1 47.9 1.7 43.7 .2 39.6 1.9 33.6 3.6 27.6 2.6 23.2 1.5 18.9 .5 14.6 5 13.3"/>
  <polyline class="st0" points="9.8 12.1 15.4 12.5 11.3 16.4 16.6 14.3 14.5 19.6 18.4 15.4 18.8 21 20.4 15.6 23.3 20.4 22.4 14.9 27.1 18 23.9 13.3 29.5 14.1 24.6 11.3 29.9 9.6 24.3 9.2 28.3 5.3 23.1 7.5 25.1 2.2 21.3 6.4 20.8 .8 19.2 6.2 16.3 1.4 17.2 7 12.5 3.9 15.8 8.4 10.2 7.8 15.1 10.5 9.8 12.1 15.4 12.5"/>
  <polyline class="st0" points="9.2 13.7 6.3 17.5 3.4 21.3 .5 25 2.3 29.7 4.2 34.4 2.6 40.1 1.1 45.7 6.7 45.5 12.2 45.4 17.8 45.2 23.4 45.1 29 44.9 34.6 44.8"/>
  <polyline class="st0" points="35.8 45.8 38.2 50.9 32.9 49 36.6 53.3 31 53 35.7 56.1 30.2 57.2 35.6 59.1 30.5 61.6 36.2 61.9 31.9 65.7 37.4 64.5 34.4 69.3 39.3 66.5 37.8 72 41.6 67.9 41.9 73.5 44 68.3 46.2 73.5 46.5 67.8 50.3 72 48.8 66.5 53.7 69.2 50.6 64.4 56.2 65.6 51.9 61.8 57.6 61.5 52.5 58.9 57.9 57.1 52.3 56 57 52.8 51.4 53.3 55.1 48.9 49.8 50.9 52.1 45.7 47.7 49.2 48.4 43.5 45.1 48.2 43.9 42.7 42.7 48.3 39.6 43.6 40.3 49.2 35.5 45.4"/>
  <polyline class="st0" points="34.8 45 38.5 42 42.1 39.1 45.8 36.1 50.2 31.3 54.3 28.2 58 30 61.7 31.8"/>
  <polyline class="st0" points="61.8 33.4 67.4 33.8 63.3 37.7 68.6 35.6 66.6 40.8 70.4 36.6 70.9 42.3 72.4 36.9 75.4 41.7 74.4 36.1 79.2 39.2 75.9 34.6 81.5 35.4 76.6 32.6 81.9 30.8 76.3 30.5 80.4 26.6 75.1 28.8 77.1 23.4 73.3 27.7 72.8 22 71.2 27.5 68.3 22.7 69.3 28.2 64.5 25.2 67.8 29.7 62.2 29.1 67.1 31.8 61.8 33.4 67.4 33.8"/>
</svg>