<?xml version="1.0" encoding="UTF-8"?>
<svg id="Livello_1" xmlns="http://www.w3.org/2000/svg" version="1.1" viewBox="0 0 94.7 108.5">
  <!-- Generator: Adobe Illustrator 30.6.0, SVG Export Plug-In . SVG Version: 2.1.4 Build 109)  -->
  <defs>
    <style>
      .st0 {
        fill: none;
        stroke: #e30613;
        stroke-miterlimit: 10;
        stroke-width: .3px;
      }
    </style>
  </defs>
  <polyline class="st0" points="13.6 67.7 15.4 64.1 17.3 60.5 19.1 56.8 16.8 53.6 14.7 50.3 12.6 47.1 17.2 45.2 21.8 43.3"/>
  <polyline class="st0" points="23.7 42.5 28.9 33.7 36.3 33.8 41.1 39.3 40.3 46.5 34.3 50.7 27.2 49.1 23.7 42.7 25.8 42 22.4 42 28.3 42.6 22.6 43.5 28.4 43.1 22.9 45 28.8 43.7 23.6 46.4 29.1 44.2 24.3 47.7 29.3 44.7 25.3 48.9 29.8 45.1 26.4 50 30.3 45.4 27.8 50.8 30.8 45.7 29.2 51.4 31.3 46 30.7 51.8 31.8 46.1 32.3 52 32.5 46.1 33.8 51.9 33.1 46.1 35.3 51.6 33.8 46 36.8 51.1 34.3 45.7 38.1 50.3 34.8 45.4 39.3 49.4 35.3 45 40.3 48.3 35.8 44.6 41.3 47 36.3 44 42 45.7 36.5 43.4 42.3 44.2 36.6 42.8 42.6 42.7 36.8 42.1 42.6 41.2 36.8 41.4 42.3 39.7 36.6 40.8 42 38.2 36.3 40.2 41.3 36.8 36.1 39.6 40.3 35.6 35.6 39 39.3 34.4 35.1 38.6 38.1 33.5 34.6 38.2 36.8 32.8 34 37.9 35.3 32.2 33.3 37.7 33.8 31.9 32.6 37.7 32.3 31.8 31.9 37.7 30.8 32 31.3 37.8 29.3 32.3 30.7 38.1 27.9 32.9 30.1 38.4 26.6 33.8 29.6 38.9 25.4 34.8 29.2 39.4 24.4 35.9 28.8 39.9 23.7 37.2 28.6 40.6 22.9 38.6 28.3 41.2 22.7 40.1 28.3 41.8 22.4 41.7 28.3 42.5 22.4 42.5"/>
  <polyline class="st0" points="21.2 43.1 21.2 35.4 21.2 27.6 21.2 19.8 21.2 12.1 21.2 4.3 9.5 4.3 22.3 4.3 6.7 5 22.3 5.7 6.7 6.4 22.3 7.1 6.7 7.8 22.3 8.6 6.7 9.3 22.2 10 6.7 10.7 22.2 11.4 6.7 12.1 22.2 12.8 6.7 13.5 22.2 14.2 6.7 14.9 22.2 15.6 6.7 16.3 22.2 17 6.7 17.7 22.2 18.4 6.7 19.1 22.2 19.8 6.7 20.6 22.2 21.3 6.8 22 22.2 22.7 6.8 23.4 22.2 24.1 6.8 24.8 22.2 25.5 6.8 26.2 22.2 26.9 6.8 27.6 22.2 28.3 6.8 29 22.2 29.7 6.8 30.4 22.2 31.1 6.8 31.8 22.2 32.6 6.8 33.3 22.2 34 6.8 34.7 22.2 35.4 6.8 36.1 22.2 36.8 6.8 37.5 22.2 38.2 6.8 38.9 22.2 39.6 6.8 40.3 22.2 41 6.8 41.7 22.2 42.4 6.9 43.1 22.2 43.9 6.9 44.6 22.2 45.3 6.9 46 22.2 46.7 6.9 47.4 22.2 48.1 6.9 48.8 22.2 49.5 6.9 50.2 22.2 50.9 6.9 51.6 22.2 52.3 6.9 53 22.2 53.7 6.9 54.4 22.2 55.2 6.9 55.9 22.2 56.6 6.9 57.3 22.2 58 6.9 58.7 22.2 59.4 6.9 60.1 22.2 60.8 6.9 61.5 22.2 62.2 6.9 62.9 22.2 63.6 7 64.3 22.2 65 7 65.7 22.2 66.4 7 67.2 22.2 67.9 7 68.6 22.2 69.3 7.3 70 22.2 70.7 7.6 71.4 22.2 72.1 7.8 72.8 22.2 73.5 8.1 74.2 22.2 74.9 19.4 75.6 22.2 74.9 8.1 74.2"/>
  <polyline class="st0" points="27.1 73.3 16.4 73.3 8.7 73.3 .9 73.3 .2 72.1 .2 79.6 .9 72.1 1.7 79.6 2.3 72.1 3.1 79.6 3.8 72.1 4.5 79.6 5.1 72.1 5.9 79.6 6.6 72.1 7.2 79.6 8 72.1 8.7 79.6 9.4 72.1 10.1 79.6 10.9 72.1 11.6 79.6 12.2 72.1 12.9 79.6 13.7 72.1 14.4 79.6 15.1 72.1 15.7 79.6 16.4 72.1 17.2 79.6 17.8 72.1 18.6 79.6 19.3 72.2 20.1 79.6 20.8 72.2 21.4 79.6 22.2 72.2 22.8 79.6 23.6 72.2 24.3 79.6 24.9 72.2 25.7 79.6 26.3 72.2 27.1 79.6 27.1 72.2"/>
  <polyline class="st0" points="26.8 73.4 27.6 62.7 32.8 57 37.1 56.3 32.3 56.3 37.1 57 31.1 57.8 37.1 58.5 29.8 59.2 37.1 59.9 28.4 60.6 37.1 61.3 27.1 62 37.1 62.7 25.8 63.4 37.1 64.2 25.7 64.9 37.1 65.6 25.7 66.3 37.1 67 25.7 67.7 37.1 68.4 25.7 69.1 37.1 69.8 25.7 70.6 37.1 71.3 25.7 72 37.1 72.7 25.7 73.4 37.1 74.1 25.7 74.8 37.1 75.5 25.7 76.2 37.1 77 25.7 77.7 37.1 78.4 25.7 79.1 37.1 79.8 25.7 80.5 37.1 81.2 25.7 81.9 37.1 82.6 25.7 83.4 37.1 84.1 25.7 84.8 37.1 85.5 25.7 86.2 37.1 86.9 25.7 88.3 37.1 88.3 25.7 87.6 37.1 86.9 25.7 86.2"/>
  <polyline class="st0" points="27.1 87.2 27.1 93.4 22.1 93.4 21.3 94.5 21.3 86.1 22.1 94.5 22.8 86.1 23.4 94.5 24.2 86.1 24.8 94.5 25.7 86.1 26.3 94.5 27.1 86.1 27.8 94.5 28.4 86.1 29.3 94.5 29.9 86.1 30.7 94.5 31.3 86.1 32.1 94.5 32.8 86.1 33.6 94.5 34.3 86.1 35 94.5 35.6 86.1 36.3 94.5 37.1 86.1 37.8 94.5 38.6 86.1 39.3 94.5 40 86.1 40.8 94.5 41.5 86.1 41.5 94.5"/>
  <polyline class="st0" points="42.8 90.5 43.1 87.6 43.3 84.6 44.3 81.8 45.3 79"/>
  <polyline class="st0" points="49.3 76.1 52.3 74.8 55.3 73.6 59.3 75.5 63.1 77.4 66.6 79.5 70.1 81.6 70.1 77.6 70.1 73.7 70.1 69.7 71.6 66.2 73 62.8"/>
  <polyline class="st0" points="75.6 62.2 81.7 54.6 89.1 55.4 93.4 61.4 91.6 68.5 85.2 72.1 78.4 69.7 75.6 62.9 74.6 62 80.4 62.8 74.5 62.8 80.4 63.4 74.6 64.4 80.5 64.1 74.9 65.9 80.6 64.7 75.4 67.3 80.9 65.3 76.1 68.7 81.2 65.8 77.1 69.9 81.6 66.3 78.1 71 82.1 66.7 79.5 71.9 82.7 67 80.9 72.5 83.4 67.2 82.4 73 84 67.4 83.9 73.2 84.6 67.4 85.4 73.2 85.2 67.3 86.9 73 85.9 67.2 88.4 72.5 86.5 66.9 89.7 71.8 87.1 66.6 91 70.9 87.6 66.1 92.1 69.8 88 65.6 93.1 68.6 88.4 65.1 93.7 67.3 88.6 64.4 94.2 65.8 88.7 63.8 94.6 64.3 88.7 63.2 94.6 62.7 88.7 62.5 94.5 61.2 88.6 61.9 94.1 59.7 88.4 61.3 93.4 58.3 88.1 60.8 92.6 57 87.6 60.3 91.5 55.9 87.1 59.9 90.2 54.9 86.6 59.5 89 54.1 86.1 59.2 87.6 53.5 85.6 59 86.1 53.2 84.9 58.9 84.5 53.1 84.2 58.9 83 53.2 83.6 59 81.5 53.6 83 59.2 80.1 54.2 82.4 59.5 78.6 55 81.9 59.9 77.6 55.9 81.4 60.4 76.5 57.1 81 60.9 75.6 58.4 80.6 61.5 75.1 59.8 80.5 62.1 74.6 61.3 80.4 62.8 74.6 62.1"/>
  <polyline class="st0" points="74.4 62.9 74 57.9 65.7 57.2 75.1 57.2 65.7 57.9 75.1 58.6 65.7 59.3 75.2 60 65.9 60.7 75.4 61.4 65.9 62.2 75.5 62.9 65.9 63.6 75.6 64.3 65.9 65 75.7 65.7 65.9 66.4 75.9 67.1 65.9 67.8 76 68.5 65.9 69.2 76.1 69.9 66 70.6 76.1 71.3 66 72 76.2 72.7 66 73.4 76.5 74.1 66 74.8 76.6 75.5 66.1 76.2 76.6 76.9 66.1 77.7 76.7 78.4 66.1 79.1 76.9 79.8 66.2 80.5 77.1 81.2 66.4 81.9 77.1 81.9"/>
  <polyline class="st0" points="72.4 81.2 72.4 86.9 80.6 86.9 81.4 88.1 81.4 80.1 80.6 88.1 80 80.1 79.2 88.1 78.6 80.1 77.9 88.1 77.2 80.1 76.6 88.1 75.9 80.1 75.1 88.1 74.5 80.1 73.7 88.1 73.1 80.1 72.4 88.1 71.6 80.1 71 88 70.2 80.1 69.6 88 68.9 80.1 68.1 88 67.5 80.1 67.5 88"/>
  <polyline class="st0" points="73.2 88.2 72.1 95.7 68.2 102.2 62 106.5 54.3 107.2 47.3 104.2 42.5 98.4 40.3 91.1 41 83.6 44.6 76.9 50.8 72.3 58.3 71.1 57.3 79.3 58.3 70 56.8 79.2 56.8 69.9 56.1 79.3 55.3 70 55.3 79.4 54 70.2 54.6 79.6 52.5 70.5 54 79.9 51.1 70.9 53.3 80.4 49.6 71.5 52.6 80.8 48.3 72.2 52.1 81.3 47.1 73 51.6 81.9 46 73.9 51.3 82.5 44.8 75 50.8 83.1 43.8 76 50.6 83.7 43 77.2 50.3 84.4 42.1 78.4 50 85 41.3 79.7 49.8 85.6 40.6 81.1 49.6 86.2 40.1 82.5 49.6 86.8 39.8 83.9 49.5 87.4 39.3 85.3 49.3 88 39.1 86.8 49.3 88.6 39.1 88.3 49.3 89.2 39.1 89.8 49.3 89.8 39.1 91.3 49.3 90.5 39.3 92.7 49.5 91.1 39.6 94.2 49.6 91.7 40.1 95.6 49.6 92.3 40.6 97 49.8 93 41.1 98.4 50.1 93.6 41.8 99.7 50.3 94.2 42.6 100.9 50.6 94.8 43.6 102.1 51 95.5 44.6 103.2 51.3 96.1 45.6 104.2 51.8 96.6 46.8 105.2 52.3 97.2 48.1 106 52.8 97.7 49.3 106.7 53.3 98.2 50.6 107.4 54.1 98.5 52.1 107.9 54.8 98.9 53.6 108.2 55.5 99.1 55 108.5 56.3 99.2 56.5 108.5 57 99.2 58 108.5 57.8 99.1 59.3 108.3 58.6 98.9 60.8 108 59.3 98.6 62.3 107.6 60 98.2 63.6 107 60.6 97.8 65 106.3 61.1 97.3 66.1 105.5 61.6 96.7 67.4 104.6 62.1 96.1 68.5 103.6 62.5 95.5 69.5 102.6 62.8 94.9 70.5 101.4 63.1 94.2 71.2 100.2 63.3 93.6 72.1 98.9 63.6 93 72.6 97.6 63.8 92.3 73.2 96.2 63.8 91.7 73.6 94.8 64 91 74.1 93.3 64.1 90.4 74.2 91.9 64.1 89.8 74.4 90.4 64.1 89.2 74.5 88.9 64.1 88.5 74.4 87.4 64.1 87.9 74.1 85.9 64 87.3 73.9 84.5 63.8 86.6 73.5 83.1 63.6 86 73 81.6 63.6 85.3 72.4 80.3 63.3 84.7 71.6 79 63.1 84.1 70.9 77.7 62.8 83.5 70.1 76.5 62.3 82.8 69.1 75.4 62 82.3 68 74.4 61.6 81.7 66.9 73.4 61.1 81.2 65.6 72.6 60.5 80.7 64.4 71.8 59.8 80.2 63.1 71.2 59.3 79.8 61.6 70.7 58.6 79.6 60.1 70.3 57.8 79.4 58.8 70 57.1 79.2 58 70"/>
  <polyline class="st0" points="57.8 73.3 45.8 78.1 38.1 78.5 37.5 72.1 37.5 79.7 38.1 72.2 39 79.7 39.1 72.2 40.3 79.7 40.1 72.2 41.8 79.7 41.3 72.2 43.3 79.6 42.3 72.2 44.8 79.4 43.3 72.1 46.3 79.1 44.5 72 47.6 78.8 45.5 71.5 49.1 78.3 46.3 71.1 50.5 77.8 47.3 70.6 51.8 77.3 48.1 70.1 53.1 76.7 49 69.6 54.6 76.1 49.8 69.1 56 75.5 50.6 68.6 57.3 74.8 51.3 68 58.6 74 52.1 67.4 60 73.3 52.8 66.8 61.3 72.5 53.5 66.2 62.6 71.7 54.1 65.5 64 70.8 54.8 64.8 65.2 69.8 55.6 63.9 66.4 68.8 56.3 62.9 67.4 67.7 57.1 62 68.4 66.6 57.6 61 69.2 65.4 58.1 60 70.1 64.2 58.6 58.9 70.9 63 59.1 57.9 71.6 61.7 59.6 56.8 72.4 60.5 60 55.8 73 59.2 60.3 54.7 73.6 57.9 60.8 53.6 74.1 56.5 61.1 52.5 74.7 55.2 61.3 51.4 74.7 53.7 61.6 50.3 74.7 52.3 61.8 49.2 74.7 50.8 62.1 48.1 74.7 49.3 62.3 47 74.7 47.9 62.3 45.8 74.9 46.5 62.5 44.7 74.9 45 62.6 43.5 74.9 43.6 62.6 42.3 74.9 42.1 62.6 41.2 74.9 40.7 62.5 40 74.9 39.3 62.3 38.6 74.9 37.9 62.1 37.1 74.9 36.4 62.1 36.4"/>
  <polyline class="st0" points="65.6 35.8 68.1 31.4 70.6 27.1 67.4 25.8 64.1 24.5"/>
  <polyline class="st0" points="64.4 25.9 61 26 57.6 20.3 52.3 15 46.1 11.1 39.3 8.6 31.8 7.2 24.3 6.6 16.7 6.8 9.2 7.1 1.8 7.2 1.1 8.4 1.1 .8 1.8 8.4 2.6 .8 3.1 8.4 4 .8 4.5 8.4 5.4 .8 5.7 8.4 6.9 .8 7.1 8.4 8.2 .8 8.4 8.3 9.7 .7 9.7 8.2 11.2 .7 11.2 8.2 12.6 .7 12.4 8.1 14.1 .7 13.7 8.1 15.4 .7 15.2 8 16.9 .7 16.6 8 18.3 .7 17.8 7.9 19.8 .7 19.3 7.8 21.3 .7 20.7 7.8 22.8 .7 21.9 7.7 24.2 .9 23.3 7.7 25.7 1 24.8 7.7 27.1 1.1 26.1 7.8 28.4 1.2 27.4 7.8 29.9 1.4 28.8 7.9 31.3 1.5 30.2 8.1 32.8 1.7 31.6 8.2 34.3 1.9 32.8 8.4 35.6 2.1 34.3 8.6 37.1 2.3 35.6 8.9 38.6 2.6 36.6 9.1 40.1 2.9 37.6 9.3 41.6 3.2 38.8 9.6 43.1 3.5 39.8 9.9 44.6 3.9 41 10.3 46.1 4.3 42.1 10.6 47.6 4.8 43.1 11 49.1 5.3 44.1 11.5 50.6 5.9 45.3 11.9 51.8 6.7 46.3 12.4 53.3 7.4 47.3 13 54.6 8.3 48.3 13.5 55.8 9.1 49.3 14.2 57.1 10.1 50.3 14.8 58.3 11 51.3 15.5 59.6 12.1 52.3 16.3 60.8 13.1 53.3 17 61.8 14.3 54.1 17.9 63 15.4 55 18.7 64 16.6 55.8 19.6 64.9 17.9 56.6 20.6 65.1 19.3 57.3 21.6 65.2 20.8 58.1 22.6 65.4 22.2 58.6 23.7 65.4 23.7 59.3 24.9 65.5 25.1 59.8 26.1 65.6 25.9"/>
</svg>