<?xml version="1.0" encoding="UTF-8"?>
<svg id="Livello_1" xmlns="http://www.w3.org/2000/svg" version="1.1" viewBox="0 0 94 106.4">
  <!-- Generator: Adobe Illustrator 30.6.0, SVG Export Plug-In . SVG Version: 2.1.4 Build 109)  -->
  <defs>
    <style>
      .st0, .st1 {
        fill: none;
        stroke: #e30613;
        stroke-miterlimit: 10;
        stroke-width: .3px;
      }

      .st1 {
        fill-rule: evenodd;
      }
    </style>
  </defs>
  <polyline class="st1" points="13.6 66.3 19 55.4 12.5 45.6 21.7 41.9"/>
  <polyline class="st1" points="23.4 41.4 23.5 42.3 23.7 43.2 24 44.1 24.4 44.9 24.9 45.6 25.4 46.3 26 47 26.7 47.6 27.4 48.1 28.2 48.6 29 49 29.8 49.3 30.7 49.5 31.6 49.7 32.6 49.7 33.5 49.7 34.4 49.5 35.3 49.3 36.2 49 37 48.6 37.7 48.1 38.4 47.6 39.1 47 39.7 46.3 40.2 45.6 40.7 44.9 41.1 44.1 41.4 43.2 41.6 42.3 41.8 41.4 41.8 40.5 41.8 39.5 41.6 38.6 41.4 37.7 41.1 36.9 40.7 36.1 40.2 35.3 39.7 34.6 39.1 33.9 38.4 33.3 37.7 32.8 37 32.3 36.2 31.9 35.3 31.6 34.4 31.4 33.5 31.3 32.6 31.2 31.6 31.3 30.7 31.4 29.8 31.6 29 31.9 28.2 32.3 27.4 32.8 26.7 33.3 26 33.9 25.4 34.6 24.9 35.3 24.4 36.1 24 36.9 23.7 37.7 23.5 38.6 23.4 39.5 23.3 40.5 23.4 41.4"/>
  <polyline class="st1" points="22.9 43.8 23 2.2 7.6 3.1 7.9 67.2 9.5 74.1"/>
  <polyline class="st1" points="27.1 71.6 .2 71.5 .1 77.4 27.2 77.4 27.1 71.6"/>
  <polyline class="st1" points="26.5 71.1 26.5 62.5 26.5 62.2 26.5 62.1 33.3 54.8 36.3 54.8 36.3 72.7 36.3 77.4 36.3 87 26.5 86.9"/>
  <polyline class="st1" points="27.3 85.5 26.8 85.5 26.5 85.5 26.4 85.5 21.2 85.5 21.2 85.5 21.2 92.3 40 92.3 41.5 92.2"/>
  <polyline class="st1" points="42.9 89.1 43.3 83.2 45.4 77.5"/>
  <polyline class="st1" points="49.3 74.6 55.3 72.2 63.2 76 70 80.2 70.2 68.3 73 61.3"/>
  <polyline class="st1" points="75.4 60.8 75.3 61.7 75.4 62.7 75.5 63.6 75.7 64.5 76 65.3 76.4 66.1 76.9 66.9 77.4 67.6 78 68.3 78.7 68.9 79.4 69.4 80.2 69.9 81 70.3 81.8 70.6 82.7 70.8 83.6 70.9 84.6 71 85.5 70.9 86.4 70.8 87.3 70.6 88.2 70.3 89 69.9 89.7 69.4 90.4 68.9 91.1 68.3 91.7 67.6 92.2 66.9 92.7 66.1 93.1 65.3 93.4 64.5 93.6 63.6 93.8 62.7 93.8 61.7 93.8 60.8 93.6 59.9 93.4 59 93.1 58.1 92.7 57.3 92.2 56.6 91.7 55.9 91.1 55.2 90.4 54.6 89.7 54.1 89 53.6 88.2 53.2 87.3 52.9 86.4 52.7 85.5 52.5 84.6 52.5 83.6 52.5 82.7 52.7 81.8 52.9 81 53.2 80.2 53.6 79.4 54.1 78.7 54.6 78 55.2 77.4 55.9 76.9 56.6 76.4 57.3 76 58.1 75.7 59 75.5 59.9 75.4 60.8"/>
  <line class="st0" x1="74.1" y1="55.4" x2="76.2" y2="80.5"/>
  <polyline class="st1" points="67.4 79.5 81.5 79.5 81.5 85.8 73.7 85.8 67.4 85.7"/>
  <polyline class="st1" points="73.5 85.9 73.6 87.8 73.5 89.7 73.3 91.5 72.8 93.3 72.3 95 71.6 96.6 70.7 98.1 69.7 99.5 68.6 100.8 67.4 102 66.1 103.1 64.7 104.1 63.3 104.8 61.7 105.4 60.1 105.9 58.5 106.2 56.7 106.3 55 106.2 53.4 105.9 51.8 105.4 50.2 104.8 48.8 104.1 47.3 103.1 46 102 44.8 100.8 43.7 99.5 42.8 98.1 41.9 96.6 41.2 95 40.6 93.3 40.2 91.5 40 89.7 40 89.7 39.9 87.8 40 85.9 40.2 84.1 40.6 82.3 41.2 80.7 41.9 79.1 42.8 77.5 43.7 76.1 44.8 74.8 46 73.6 47.4 72.5 48.8 71.5 50.2 70.8 51.8 70.2 53.4 69.7 55 69.4 56.7 69.3 58.5 69.4"/>
  <polyline class="st1" points="57.6 72.3 58.6 71.7 59.5 71.2 60.3 70.8 60.8 70.5 61.2 70.2 61.3 70.2 62.8 69.3 64.2 68.2 65.6 67 66.8 65.7 67.9 64.3 69 62.9 69.9 61.5 70.8 60.1 71.5 58.8 72.2 57.5 72.7 56.4 73.2 55.4 73.5 54.5 73.8 53.9 73.9 53.5 74 53.4 74 34.9 73.9 34.9 73.5 34.9 73 34.9 72.2 34.9 71.4 34.9 70.5 34.9 69.5 34.9 68.5 34.9 67.4 34.9 66.4 34.9 65.5 34.9 64.7 34.9 64 34.9 63.4 34.9 63.1 34.9 62.9 34.9 63.3 37.7"/>
  <polyline class="st1" points="65.6 34.3 70.6 25.6 64.2 23.1"/>
  <polyline class="st1" points="64.7 24.5 60.7 24.7 60.6 24.4 60.4 23.8 59.9 22.9 59.3 21.6 58.3 20.2 57.1 18.6 55.6 16.8 53.8 15 51.5 13.3 48.9 11.5 45.9 9.9 42.4 8.4 38.4 7.2 33.9 6.3 28.9 5.6 23.3 5.4 7.3 6.1 1 6.1 1 .6 1 .3 1 .3 21.3 .1 21.5 .1 22 .2 22.8 .2 23.9 .3 25.2 .3 26.8 .5 28.6 .6 30.5 .8 32.5 1.1 34.7 1.4 37 1.7 39.3 2.1 41.7 2.6 44 3.2 46.4 3.8 48.7 4.5 48.8 4.6 49.1 4.7 49.6 4.9 50.3 5.3 51.1 5.7 52.1 6.2 53.2 6.9 54.3 7.6 55.5 8.4 56.8 9.3 58.1 10.4 59.4 11.5 60.7 12.7 62 14 63.2 15.4 64.3 17 64.7 24.5"/>
</svg>