<?xml version="1.0" encoding="UTF-8"?>
<svg id="Livello_1" xmlns="http://www.w3.org/2000/svg" version="1.1" viewBox="0 0 94.6 107.9">
  <!-- Generator: Adobe Illustrator 30.6.0, SVG Export Plug-In . SVG Version: 2.1.4 Build 109)  -->
  <defs>
    <style>
      .st0 {
        fill: none;
        fill-rule: evenodd;
        stroke: #e30613;
        stroke-miterlimit: 10;
        stroke-width: .3px;
      }
    </style>
  </defs>
  <polyline class="st0" points="13.5 67 15.3 63.4 17.2 59.8 19 56.1 16.8 52.9 14.6 49.6 12.5 46.4 17.1 44.5 21.7 42.6"/>
  <polyline class="st0" points="23.6 41.8 28.9 33 36.3 33.1 41.1 38.6 40.2 45.8 34.2 50 27.1 48.4 23.6 42 25.7 41.3 22.4 41.3 28.3 41.9 22.5 42.8 28.4 42.4 22.9 44.3 28.7 43 23.5 45.7 29 43.5 24.3 47 29.3 44 25.3 48.2 29.7 44.4 26.4 49.3 30.2 44.7 27.7 50.1 30.7 45 29.1 50.7 31.2 45.3 30.6 51.1 31.8 45.4 32.2 51.3 32.4 45.4 33.7 51.2 33 45.4 35.2 50.9 33.7 45.3 36.7 50.4 34.3 45 38 49.6 34.8 44.7 39.2 48.7 35.3 44.3 40.3 47.6 35.8 43.9 41.2 46.3 36.2 43.3 41.9 45 36.4 42.7 42.3 43.5 36.6 42.1 42.6 42 36.7 41.4 42.6 40.5 36.7 40.7 42.3 39 36.6 40.1 41.9 37.5 36.3 39.5 41.2 36.1 36 38.9 40.3 34.9 35.6 38.3 39.3 33.7 35.1 37.9 38.1 32.8 34.6 37.5 36.7 32.1 33.9 37.2 35.3 31.5 33.3 37 33.8 31.2 32.6 37 32.3 31.1 31.9 37 30.7 31.3 31.3 37.1 29.3 31.6 30.6 37.4 27.9 32.2 30 37.7 26.5 33.1 29.5 38.2 25.4 34.1 29.1 38.7 24.4 35.2 28.7 39.2 23.6 36.5 28.5 39.9 22.9 37.9 28.3 40.5 22.6 39.4 28.3 41.1 22.4 41 28.3 41.8 22.4 41.8"/>
  <polyline class="st0" points="22.5 42.4 22.6 34.7 22.6 26.9 22.6 19.1 22.6 11.4 22.6 3.6 9.7 3.6 23.8 3.6 6.7 4.3 23.8 5 6.7 5.7 23.8 6.4 6.7 7.1 23.8 7.9 6.7 8.6 23.7 9.3 6.7 10 23.7 10.7 6.7 11.4 23.7 12.1 6.7 12.8 23.7 13.5 6.7 14.2 23.7 14.9 6.7 15.6 23.7 16.3 6.7 17 23.7 17.7 6.7 18.4 23.7 19.1 6.7 19.9 23.7 20.6 6.8 21.3 23.7 22 6.8 22.7 23.7 23.4 6.8 24.1 23.7 24.8 6.8 25.5 23.7 26.2 6.8 26.9 23.7 27.6 6.8 28.3 23.7 29 6.8 29.7 23.7 30.4 6.8 31.1 23.7 31.9 6.8 32.6 23.7 33.3 6.8 34 23.7 34.7 6.8 35.4 23.7 36.1 6.8 36.8 23.7 37.5 6.8 38.2 23.7 38.9 6.8 39.6 23.7 40.3 6.8 41 23.7 41.7 6.9 42.4 23.7 43.2 6.9 43.9 23.7 44.6 6.9 45.3 23.7 46 6.9 46.7 23.7 47.4 6.9 48.1 23.7 48.8 6.9 49.5 23.7 50.2 6.9 50.9 23.7 51.6 6.9 52.3 23.7 53 6.9 53.7 23.7 54.5 6.9 55.2 23.7 55.9 6.9 56.6 23.7 57.3 6.9 58 23.7 58.7 6.9 59.4 23.7 60.1 6.9 60.8 23.7 61.5 6.9 62.2 23.7 62.9 7 63.6 23.7 64.3 7 65 23.7 65.7 7 66.5 23.7 67.2 7 67.9 23.7 68.6 7.3 69.3 23.7 70 7.6 70.7 23.6 71.4 7.9 72.1 23.6 72.8 8.2 73.5 23.6 74.2 20.6 74.9 23.6 74.2 8.2 73.5"/>
  <polyline class="st0" points="27 72.6 16.4 72.6 8.6 72.6 .9 72.6 .1 71.4 .1 78.9 .9 71.4 1.6 78.9 2.3 71.4 3 78.9 3.7 71.4 4.4 78.9 5.1 71.4 5.8 78.9 6.5 71.4 7.2 78.9 7.9 71.4 8.6 78.9 9.3 71.4 10 78.9 10.8 71.4 11.5 78.9 12.2 71.4 12.9 78.9 13.6 71.4 14.3 78.9 15 71.4 15.7 78.9 16.4 71.4 17.1 78.9 17.8 71.4 18.5 78.9 19.2 71.5 20 78.9 20.7 71.5 21.4 78.9 22.1 71.5 22.8 78.9 23.5 71.5 24.2 78.9 24.9 71.5 25.6 78.9 26.3 71.5 27 78.9 27 71.5"/>
  <polyline class="st0" points="26.7 72.7 27.5 62 32.8 56.3 37.1 55.6 32.3 55.6 37.1 56.3 31 57.1 37.1 57.8 29.7 58.5 37.1 59.2 28.4 59.9 37.1 60.6 27 61.3 37.1 62 25.7 62.7 37.1 63.5 25.6 64.2 37.1 64.9 25.6 65.6 37.1 66.3 25.6 67 37.1 67.7 25.6 68.4 37.1 69.1 25.6 69.9 37.1 70.6 25.6 71.3 37.1 72 25.6 72.7 37.1 73.4 25.6 74.1 37.1 74.8 25.6 75.5 37.1 76.3 25.6 77 37.1 77.7 25.6 78.4 37.1 79.1 25.6 79.8 37.1 80.5 25.6 81.2 37.1 81.9 25.6 82.7 37.1 83.4 25.6 84.1 37.1 84.8 25.6 85.5 37.1 86.2 25.6 87.6 37.1 87.6 25.6 86.9 37.1 86.2 25.6 85.5"/>
  <polyline class="st0" points="27 86.5 27 92.7 22 92.7 21.2 93.8 21.2 85.4 22 93.8 22.7 85.4 23.4 93.8 24.1 85.4 24.8 93.8 25.6 85.4 26.3 93.8 27 85.4 27.7 93.8 28.4 85.4 29.2 93.8 29.9 85.4 30.6 93.8 31.3 85.4 32 93.8 32.8 85.4 33.5 93.8 34.2 85.4 34.9 93.8 35.6 85.4 36.3 93.8 37.1 85.4 37.8 93.8 38.5 85.4 39.2 93.8 39.9 85.4 40.7 93.8 41.4 85.4 41.4 93.8"/>
  <polyline class="st0" points="42.8 89.8 43 86.9 43.2 83.9 44.3 81.1 45.3 78.3"/>
  <polyline class="st0" points="49.2 75.4 52.2 74.1 55.3 72.9 59.2 74.8 63.1 76.7 66.5 78.8 70 80.9 70 76.9 70 73 70.1 69 71.5 65.5 72.9 62.1"/>
  <polyline class="st0" points="75.6 61.5 81.7 53.9 89 54.7 93.3 60.7 91.6 67.8 85.2 71.4 78.3 69 75.5 62.2 74.5 61.3 80.3 62.1 74.4 62.1 80.3 62.7 74.5 63.7 80.4 63.4 74.8 65.2 80.6 64 75.3 66.6 80.8 64.6 76.1 68 81.2 65.1 77 69.2 81.6 65.6 78.1 70.3 82.1 66 79.4 71.2 82.7 66.3 80.8 71.8 83.3 66.5 82.3 72.3 83.9 66.7 83.8 72.5 84.5 66.7 85.3 72.5 85.2 66.6 86.8 72.3 85.8 66.5 88.3 71.8 86.4 66.2 89.7 71.1 87 65.9 90.9 70.2 87.5 65.4 92 69.1 87.9 64.9 93 67.9 88.3 64.4 93.7 66.6 88.5 63.7 94.2 65.1 88.7 63.1 94.5 63.6 88.7 62.5 94.6 62 88.7 61.8 94.4 60.5 88.5 61.2 94 59 88.3 60.6 93.3 57.6 88 60.1 92.5 56.3 87.6 59.6 91.4 55.2 87.1 59.2 90.2 54.2 86.6 58.8 88.9 53.4 86.1 58.5 87.5 52.8 85.5 58.3 86 52.5 84.8 58.2 84.4 52.4 84.2 58.2 82.9 52.5 83.5 58.3 81.4 52.9 82.9 58.5 80 53.5 82.3 58.8 78.6 54.3 81.8 59.2 77.5 55.2 81.3 59.7 76.4 56.4 80.9 60.2 75.6 57.7 80.6 60.8 75 59.1 80.4 61.4 74.6 60.6 80.3 62.1 74.5 61.4"/>
  <polyline class="st0" points="74.3 62.2 73.9 57.2 65.7 56.5 75 56.5 65.7 57.2 75.1 57.9 65.7 58.6 75.2 59.3 65.8 60 75.3 60.7 65.8 61.5 75.4 62.2 65.8 62.9 75.5 63.6 65.8 64.3 75.7 65 65.8 65.7 75.8 66.4 65.8 67.1 75.9 67.8 65.8 68.5 76 69.2 65.9 69.9 76.1 70.6 65.9 71.3 76.2 72 65.9 72.7 76.4 73.4 65.9 74.1 76.5 74.8 66 75.5 76.6 76.2 66.1 77 76.7 77.7 66.1 78.4 76.8 79.1 66.2 79.8 77 80.5 66.3 81.2 77 81.2"/>
  <polyline class="st0" points="72.3 80.5 72.3 86.2 80.6 86.2 81.3 87.4 81.3 79.4 80.6 87.4 79.9 79.4 79.2 87.4 78.5 79.4 77.8 87.4 77.2 79.4 76.5 87.4 75.8 79.4 75.1 87.4 74.4 79.4 73.7 87.4 73 79.4 72.3 87.4 71.6 79.4 70.9 87.3 70.2 79.4 69.5 87.3 68.8 79.4 68.1 87.3 67.4 79.4 67.4 87.3"/>
  <polyline class="st0" points="73.2 87.5 72.1 95 68.2 101.5 61.9 105.8 54.3 106.5 47.3 103.5 42.4 97.7 40.2 90.4 40.9 82.9 44.6 76.2 50.7 71.6 58.2 70.4 57.3 78.6 58.3 69.3 56.8 78.5 56.8 69.2 56.1 78.6 55.3 69.3 55.3 78.7 53.9 69.5 54.6 78.9 52.4 69.8 53.9 79.2 51 70.2 53.2 79.7 49.6 70.8 52.6 80.1 48.3 71.5 52.1 80.6 47.1 72.3 51.6 81.2 45.9 73.2 51.2 81.8 44.8 74.3 50.8 82.4 43.8 75.3 50.5 83 42.9 76.5 50.2 83.7 42 77.7 49.9 84.3 41.3 79 49.8 84.9 40.6 80.4 49.6 85.5 40.1 81.8 49.5 86.1 39.7 83.2 49.4 86.7 39.3 84.6 49.3 87.3 39.1 86.1 49.3 87.9 39 87.6 49.3 88.5 39 89.1 49.3 89.1 39 90.6 49.3 89.8 39.3 92 49.4 90.4 39.6 93.5 49.5 91 40 94.9 49.6 91.6 40.5 96.3 49.8 92.3 41.1 97.7 50 92.9 41.8 99 50.3 93.5 42.6 100.2 50.5 94.1 43.5 101.4 50.9 94.8 44.5 102.5 51.3 95.4 45.6 103.5 51.7 95.9 46.7 104.5 52.2 96.5 48 105.3 52.7 97 49.3 106 53.3 97.5 50.6 106.7 54 97.8 52 107.2 54.7 98.2 53.5 107.5 55.4 98.4 54.9 107.8 56.2 98.5 56.4 107.8 56.9 98.5 57.9 107.8 57.7 98.4 59.3 107.6 58.5 98.2 60.8 107.3 59.2 97.9 62.2 106.9 59.9 97.5 63.6 106.3 60.5 97.1 64.9 105.6 61 96.6 66.1 104.8 61.6 96 67.3 103.9 62 95.4 68.4 102.9 62.4 94.8 69.4 101.9 62.8 94.2 70.4 100.7 63.1 93.5 71.2 99.5 63.3 92.9 72 98.2 63.5 92.3 72.6 96.9 63.7 91.6 73.2 95.5 63.8 91 73.6 94.1 63.9 90.3 74 92.6 64 89.7 74.2 91.2 64 89.1 74.3 89.7 64.1 88.5 74.4 88.2 64 87.8 74.3 86.7 64 87.2 74.1 85.2 63.9 86.6 73.8 83.8 63.8 85.9 73.4 82.4 63.6 85.3 72.9 80.9 63.5 84.6 72.3 79.6 63.2 84 71.6 78.3 63 83.4 70.8 77 62.7 82.8 70 75.8 62.3 82.1 69 74.7 61.9 81.6 67.9 73.7 61.5 81 66.8 72.7 61 80.5 65.6 71.9 60.4 80 64.3 71.1 59.8 79.5 63 70.5 59.2 79.1 61.6 70 58.5 78.9 60.1 69.6 57.8 78.7 58.7 69.3 57 78.5 57.9 69.3"/>
  <polyline class="st0" points="57.7 72.6 45.8 77.4 38.1 77.8 37.4 71.4 37.4 79 38 71.5 38.9 79 39 71.5 40.3 79 40.1 71.5 41.8 79 41.2 71.5 43.3 78.9 42.2 71.5 44.7 78.7 43.3 71.4 46.2 78.4 44.4 71.3 47.6 78.1 45.4 70.8 49 77.6 46.3 70.4 50.4 77.1 47.2 69.9 51.8 76.6 48 69.4 53.1 76 48.9 68.9 54.5 75.4 49.7 68.4 55.9 74.8 50.5 67.9 57.2 74.1 51.2 67.3 58.6 73.3 52 66.7 59.9 72.6 52.7 66.1 61.3 71.8 53.4 65.5 62.6 71 54.1 64.8 63.9 70.1 54.8 64.1 65.2 69.1 55.6 63.2 66.3 68.1 56.3 62.2 67.3 67 57 61.3 68.3 65.9 57.6 60.3 69.2 64.7 58.1 59.3 70 63.5 58.6 58.2 70.8 62.3 59 57.2 71.6 61 59.5 56.1 72.3 59.8 59.9 55.1 72.9 58.5 60.3 54 73.5 57.2 60.7 52.9 74.1 55.8 61 51.8 74.7 54.5 61.3 50.7 74.7 53 61.6 49.6 74.7 51.6 61.8 48.5 74.7 50.1 62 47.4 74.7 48.6 62.2 46.3 74.7 47.2 62.3 45.1 74.8 45.8 62.4 44 74.8 44.3 62.5 42.8 74.8 42.9 62.5 41.6 74.8 41.4 62.5 40.5 74.8 40 62.4 39.3 74.8 38.6 62.3 37.9 74.8 37.2 62.1 36.4 74.8 35.7 62 35.7"/>
  <polyline class="st0" points="65.5 35.1 68 30.7 70.5 26.4 67.3 25.1 64.1 23.8"/>
  <polyline class="st0" points="64.3 25.2 60.9 25.3 57.6 19.6 52.3 14.3 46 10.4 39.3 7.9 31.8 6.5 24.2 5.9 16.6 6.1 9.1 6.4 1.7 6.5 1 7.7 1 .1 1.7 7.7 2.5 .1 3.1 7.7 3.9 .1 4.4 7.7 5.3 .1 5.7 7.7 6.8 .1 7 7.7 8.2 .1 8.4 7.6 9.6 0 9.7 7.5 11.1 0 11.1 7.5 12.5 0 12.4 7.4 14 0 13.7 7.4 15.4 0 15.1 7.3 16.9 0 16.5 7.3 18.3 0 17.8 7.2 19.8 0 19.2 7.1 21.2 0 20.6 7.1 22.7 0 21.9 7 24.1 .2 23.3 7 25.6 .3 24.7 7 27 .4 26 7.1 28.4 .5 27.4 7.1 29.9 .7 28.8 7.2 31.3 .8 30.1 7.4 32.8 1 31.5 7.5 34.2 1.2 32.8 7.7 35.6 1.4 34.2 7.9 37.1 1.6 35.5 8.2 38.5 1.9 36.5 8.4 40 2.2 37.6 8.6 41.5 2.5 38.7 8.9 43 2.8 39.8 9.2 44.5 3.2 40.9 9.6 46 3.6 42 9.9 47.5 4.1 43 10.3 49.1 4.6 44.1 10.8 50.5 5.2 45.2 11.2 51.8 6 46.2 11.7 53.2 6.7 47.2 12.3 54.5 7.6 48.3 12.8 55.8 8.4 49.3 13.5 57.1 9.4 50.3 14.1 58.3 10.3 51.3 14.8 59.5 11.4 52.2 15.6 60.7 12.4 53.2 16.3 61.8 13.6 54.1 17.2 62.9 14.7 54.9 18 63.9 15.9 55.7 18.9 64.8 17.2 56.5 19.9 65.1 18.6 57.3 20.9 65.2 20.1 58 21.9 65.3 21.5 58.6 23 65.3 23 59.2 24.2 65.4 24.4 59.7 25.4 65.5 25.2"/>
</svg>