<?xml version="1.0" encoding="UTF-8"?>
<svg id="Livello_1" xmlns="http://www.w3.org/2000/svg" version="1.1" viewBox="0 0 39.7 74.4">
  <!-- Generator: Adobe Illustrator 30.6.0, SVG Export Plug-In . SVG Version: 2.1.4 Build 109)  -->
  <defs>
    <style>
      .st0 {
        fill: none;
        stroke: #9d9100;
        stroke-miterlimit: 10;
        stroke-width: .3px;
      }
    </style>
  </defs>
  <polyline class="st0" points="6.4 63.2 5.2 63.2 4.7 63.3 3.6 63.6 2.7 64.1 1.9 64.8 1.2 65.6 1.2 65.6 .7 66.5 .3 67.6 .3 68.1 .2 68.7 .3 69.3 .3 69.8 .7 70.9 .9 71.3 1.5 72.2 2.3 73 3.2 73.6 4.1 74 4.7 74.1 5.2 74.2 6.4 74.2 6.9 74.1 7.4 74 8.4 73.6 9.3 73 10.1 72.2 10.4 71.8 10.9 70.8 11.2 69.8 11.3 69.3 11.3 68.1 11.2 67.6 10.9 66.5 10.4 65.6 9.7 64.8 8.9 64.1 7.9 63.6 6.9 63.3 6.4 63.2"/>
  <polyline class="st0" points="5.7 .1 5.2 .2 4.6 .2 3.6 .6 2.6 1.1 1.8 1.8 1.5 2.2 .9 3.1 .6 3.5 .3 4.6 .2 5.1 .2 5.7 .2 6.2 .3 6.8 .6 7.8 1.1 8.8 1.4 9.2 2.2 9.9 3.1 10.6 3.6 10.8 4.6 11.1 5.2 11.2 6.3 11.2 6.8 11.1 7.9 10.8 7.9 10.8 8.8 10.3 9.2 9.9 10 9.2 10.3 8.8 10.8 7.8 11.2 6.8 11.2 6.3 11.3 5.7 11.2 5.1 11.2 4.6 10.8 3.5 10.3 2.6 10 2.2 9.2 1.4 8.8 1.1 7.9 .6 6.8 .2 6.3 .2 5.7 .1"/>
  <polyline class="st0" points="30.5 41.6 31 41.6 31.9 41.8 32.9 42.1 33.8 42.5 34.6 43 35.4 43.6 36.2 44.3 36.9 45 37.5 45.9 38 46.8 38.5 47.7 38.9 48.7 39.2 49.7 39.4 50.8 39.5 51.9 39.6 53 39.5 54.2 39.4 55.2 39.2 56.3 38.9 57.3 38.5 58.3 38 59.2 37.5 60.1 36.9 61 36.2 61.7 35.4 62.4 34.6 63 33.8 63.5 32.9 63.9 31.9 64.2 31 64.4 29.9 64.5 28.9 64.4 27.9 64.2 26.9 63.9 26 63.5 25.2 63 24.4 62.4 23.6 61.7 23 61 22.3 60.1 21.8 59.3 21.3 58.3 21 57.3 20.7 56.3 20.4 55.2 20.3 54.2 20.2 53 20.3 51.9 20.4 50.8 20.7 49.7 21 48.7 21.3 47.7 21.8 46.8 22.3 45.9 23 45 23.6 44.3 24.4 43.6 25.2 43 26 42.5 26.9 42.1 27.9 41.8 28.9 41.6 30 41.5 30.5 41.6"/>
</svg>