<?xml version="1.0" encoding="UTF-8"?>
<svg id="Livello_1" xmlns="http://www.w3.org/2000/svg" version="1.1" viewBox="0 0 40.4 74.6">
  <!-- Generator: Adobe Illustrator 30.6.0, SVG Export Plug-In . SVG Version: 2.1.4 Build 109)  -->
  <defs>
    <style>
      .st0 {
        fill: none;
        stroke: #9d9100;
        stroke-miterlimit: 10;
        stroke-width: .3px;
      }
    </style>
  </defs>
  <polyline class="st0" points="6.4 63.4 5.2 63.4 4.7 63.4 3.6 63.8 2.7 64.3 1.9 65 1.2 65.8 1.2 65.8 .7 66.7 .3 67.8 .3 68.3 .2 68.9 .3 69.4 .3 70 .7 71 .9 71.5 1.5 72.4 2.3 73.1 3.2 73.7 4.1 74.1 4.7 74.3 5.2 74.4 6.4 74.4 6.9 74.3 7.4 74.2 8.4 73.7 9.3 73.1 10.1 72.4 10.4 72 10.9 71 11.2 70 11.3 69.4 11.3 68.3 11.2 67.8 10.9 66.7 10.4 65.8 9.7 65 8.9 64.3 7.9 63.8 6.9 63.4 6.4 63.4"/>
  <polyline class="st0" points="6.4 .1 5.8 .2 5.3 .2 4.2 .6 3.3 1.1 2.5 1.8 2.1 2.2 1.5 3.1 1.3 3.5 1 4.6 .9 5.1 .9 5.7 .9 6.2 1 6.8 1.3 7.8 1.8 8.8 2.1 9.2 2.9 9.9 3.8 10.6 4.2 10.8 5.3 11.1 5.8 11.2 7 11.2 7.5 11.1 8.5 10.8 8.5 10.8 9.5 10.3 9.9 9.9 10.7 9.2 11 8.8 11.5 7.8 11.8 6.8 11.9 6.3 11.9 5.7 11.9 5.1 11.8 4.6 11.5 3.5 11 2.6 10.7 2.2 9.9 1.4 9.5 1.1 8.5 .6 7.5 .2 7 .2 6.4 .1"/>
  <polyline class="st0" points="31.2 41.6 31.6 41.6 32.6 41.8 33.6 42.1 34.5 42.5 35.3 43 36.1 43.6 36.8 44.3 37.5 45 38.1 45.9 38.7 46.8 39.1 47.7 39.5 48.7 39.8 49.7 40.1 50.8 40.2 51.9 40.2 53 40.2 54.2 40.1 55.2 39.8 56.3 39.5 57.3 39.1 58.3 38.7 59.2 38.1 60.1 37.5 61 36.8 61.7 36.1 62.4 35.3 63 34.5 63.5 33.6 63.9 32.6 64.2 31.6 64.4 30.6 64.5 29.5 64.4 28.6 64.2 27.6 63.9 26.7 63.5 25.9 63 25 62.4 24.3 61.7 23.6 61 23 60.1 22.5 59.3 22 58.3 21.6 57.3 21.3 56.3 21.1 55.2 21 54.2 20.9 53 21 51.9 21.1 50.8 21.3 49.7 21.6 48.7 22 47.7 22.5 46.8 23 45.9 23.6 45 24.3 44.3 25.1 43.6 25.9 43 26.7 42.5 27.6 42.1 28.6 41.8 29.5 41.6 30.7 41.5 31.2 41.6"/>
</svg>